# xmcd
#
# Track frame offsets:
#	150
#	15692
#	43010
#	76462
#	97685
#	119150
#	138007
#	159880
#	181577
#	208090
#	223752
#	246890
#	270942
#	289642
#	304720
#
# Disc length: 4416 seconds
#
# Revision: 2
# Processed by: cddbd v1.5.1PL2 Copyright (c) Steve Scherf et al.
# Submitted via: audiograbber 1.83.01
#
DISCID=c3113e0f
DTITLE=Various Artist - Velvet Jazz
DYEAR=1998
DGENRE=Jazz
TTITLE0=George Benson - Moody's Mood
TTITLE1=Zachary Breaux - Cafe Regio
TTITLE2=Grover Washington - Winelight
TTITLE3=Gerald Albright - So Amazing
TTITLE4=Bob James - Bare Bones 
TTITLE5=Earl Klugh - Just For Your Love
TTITLE6=Joe Sample - Luna And New York
TTITLE7=Sergio Mendes - The Real Thing
TTITLE8=Fourplay - 101 Eastbound
TTITLE9=Pieces Of A Dream - Warm Weather
TTITLE10=David Sanborn - Carly's Song
TTITLE11=Larry Carlton - South Town
TTITLE12=Doc Powell - Bahama Momma
TTITLE13=Ahmad Jamal - Midnight Sun
TTITLE14=George Duke - Look What We Started Now
EXTD=YEAR: 1998
EXTT0=
EXTT1=
EXTT2=
EXTT3=
EXTT4=
EXTT5=
EXTT6=
EXTT7=
EXTT8=
EXTT9=
EXTT10=
EXTT11=
EXTT12=
EXTT13=
EXTT14=
PLAYORDER=
